<?xml version="1.0" encoding="UTF-8" standalone="no"?>
<!-- Generator: Adobe Illustrator 19.0.0, SVG Export Plug-In . SVG Version: 6.00 Build 0)  -->

<svg xmlns:dc="http://purl.org/dc/elements/1.1/" xmlns:cc="http://creativecommons.org/ns#" xmlns:rdf="http://www.w3.org/1999/02/22-rdf-syntax-ns#"
    xmlns="http://www.w3.org/2000/svg" xmlns:sodipodi="http://sodipodi.sourceforge.net/DTD/sodipodi-0.dtd"
    xmlns:inkscape="http://www.inkscape.org/namespaces/inkscape" version="1.1" id="Capa_1" x="0px" y="0px"
    viewBox="0 0 114.358 114.358" style="enable-background:new 0 0 114.358 114.358;" xml:space="preserve"
    sodipodi:docname="lemuroid_tiny.svg" inkscape:version="0.92.4 (f8dce91, 2019-08-02)"><metadata
   id="metadata123"><rdf:RDF><cc:Work
       rdf:about=""><dc:format>image/svg+xml</dc:format><dc:type
         rdf:resource="http://purl.org/dc/dcmitype/StillImage" /><dc:title /></cc:Work></rdf:RDF></metadata><defs
   id="defs121">
	
	

		
		
		
	
			
			
		
				
				
			
					
					
					
				
						
						
						
					
					
					
					
				
						
						
						
					
				
				
				
			</defs><sodipodi:namedview
   pagecolor="#ffffff"
   bordercolor="#666666"
   borderopacity="1"
   objecttolerance="10"
   gridtolerance="10"
   guidetolerance="10"
   inkscape:pageopacity="0"
   inkscape:pageshadow="2"
   inkscape:window-width="1862"
   inkscape:window-height="1051"
   id="namedview119"
   showgrid="false"
   inkscape:zoom="5.8370101"
   inkscape:cx="29.222231"
   inkscape:cy="49.76774"
   inkscape:window-x="58"
   inkscape:window-y="0"
   inkscape:window-maximized="1"
   inkscape:current-layer="Capa_1" />

<g
   id="g88">
</g>
<g
   id="g90">
</g>
<g
   id="g92">
</g>
<g
   id="g94">
</g>
<g
   id="g96">
</g>
<g
   id="g98">
</g>
<g
   id="g100">
</g>
<g
   id="g102">
</g>
<g
   id="g104">
</g>
<g
   id="g106">
</g>
<g
   id="g108">
</g>
<g
   id="g110">
</g>
<g
   id="g112">
</g>
<g
   id="g114">
</g>
<g
   id="g116">
</g>
<circle
   id="circle42"
   r="15.974302"
   cy="57.886375"
   cx="33.352951"
   style="clip-rule:evenodd;fill:#ffffff;fill-opacity:0;fill-rule:evenodd;stroke-width:1.37377906" /><g
   id="g58"
   transform="matrix(1.373779,0,0,1.373779,-20.490945,12.16701)"
   style="fill:#000000;fill-opacity:0"
   clip-path="none">
						<circle
   id="circle56"
   r="11.628"
   cy="33.279999"
   cx="74.097"
   style="clip-rule:evenodd;fill:#000000;fill-opacity:0;fill-rule:evenodd" />
					</g><path
   style="clip-rule:evenodd;fill:#ffffff;fill-opacity:0.70588237;fill-rule:evenodd;stroke-width:1.37377906"
   d="m 69.215449,84.451878 c 0,5.628373 -4.56232,10.190693 -10.190692,10.190693 h -3.096498 c -5.626999,0 -10.190693,-4.56232 -10.190693,-10.190693 v 0 c 0,-5.628372 4.563694,-10.190692 10.190693,-10.190692 h 3.096498 c 5.628372,0 10.190692,4.56232 10.190692,10.190692 z"
   id="path74"
   inkscape:connector-curvature="0" /><g
   clip-path="none"
   style="fill:#000000;fill-opacity:1"
   transform="matrix(1.373779,0,0,1.373779,-20.490945,12.16701)"
   id="g4597">
						
					</g><path
   id="path4599"
   style="clip-rule:evenodd;fill:#ffffff;fill-opacity:1;fill-rule:evenodd;stroke-width:1.37377906"
   d="m 69.215449,84.451878 c 0,5.628373 -4.56232,10.190693 -10.190692,10.190693 h -3.096498 c -5.626999,0 -10.190693,-4.56232 -10.190693,-10.190693 v 0 c 0,-5.628372 4.563694,-10.190692 10.190693,-10.190692 h 3.096498 c 5.628372,0 10.190692,4.56232 10.190692,10.190692 z M 97.27626,57.886374 A 15.974302,15.974302 0 0 1 81.301958,73.860676 15.974302,15.974302 0 0 1 65.327655,57.886374 15.974302,15.974302 0 0 1 81.301958,41.912072 15.974302,15.974302 0 0 1 97.27626,57.886374 Z m -47.949007,10e-7 A 15.974302,15.974302 0 0 1 33.352951,73.860678 15.974302,15.974302 0 0 1 17.378649,57.886375 15.974302,15.974302 0 0 1 33.352951,41.912073 15.974302,15.974302 0 0 1 49.327253,57.886375 Z M 22.459705,5.7407494 h 70.515636 c 8.551299,0 15.435559,6.8842596 15.435559,15.4355606 v 71.749912 c 0,8.551298 -6.88426,15.435558 -15.435559,15.435558 H 22.459705 c -8.5513,0 -15.4355604,-6.88426 -15.4355604,-15.435558 V 21.17631 c 0,-8.551301 6.8842604,-15.4355606 15.4355604,-15.4355606 z" /></svg>