<?xml version="1.0" encoding="UTF-8" standalone="no"?>
<!-- Generator: Adobe Illustrator 19.0.0, SVG Export Plug-In . SVG Version: 6.00 Build 0)  -->

<svg xmlns:dc="http://purl.org/dc/elements/1.1/" xmlns:cc="http://creativecommons.org/ns#" xmlns:rdf="http://www.w3.org/1999/02/22-rdf-syntax-ns#"
    xmlns="http://www.w3.org/2000/svg" xmlns:sodipodi="http://sodipodi.sourceforge.net/DTD/sodipodi-0.dtd"
    xmlns:inkscape="http://www.inkscape.org/namespaces/inkscape" version="1.1" id="Capa_1" x="0px" y="0px"
    viewBox="0 0 114.358 114.358" style="enable-background:new 0 0 114.358 114.358;" xml:space="preserve"
    sodipodi:docname="lemuroid_overlay.svg" inkscape:version="0.92.4 (f8dce91, 2019-08-02)"><metadata
   id="metadata123"><rdf:RDF><cc:Work
       rdf:about=""><dc:format>image/svg+xml</dc:format><dc:type
         rdf:resource="http://purl.org/dc/dcmitype/StillImage" /><dc:title></dc:title></cc:Work></rdf:RDF></metadata><defs
   id="defs121">
	
	

		
		
		
	
			
			
		
				
				
			
					
					
					
				
						
						
						
					
					
					
					
				
						
						
						
					
				
				
				
			</defs><sodipodi:namedview
   pagecolor="#ffffff"
   bordercolor="#666666"
   borderopacity="1"
   objecttolerance="10"
   gridtolerance="10"
   guidetolerance="10"
   inkscape:pageopacity="0"
   inkscape:pageshadow="2"
   inkscape:window-width="1862"
   inkscape:window-height="1051"
   id="namedview119"
   showgrid="false"
   inkscape:zoom="4"
   inkscape:cx="62.073325"
   inkscape:cy="47.420916"
   inkscape:window-x="58"
   inkscape:window-y="0"
   inkscape:window-maximized="1"
   inkscape:current-layer="Capa_1" />

<rect
   style="opacity:1;fill:#00c64e;fill-opacity:1;stroke:none;stroke-width:0.99941909;stroke-linejoin:round;stroke-opacity:1"
   id="rect843"
   width="114.34478"
   height="114.4063"
   x="0"
   y="-0.005471379" /><g
   id="g88">
</g>
<g
   id="g90">
</g>
<g
   id="g92">
</g>
<g
   id="g94">
</g>
<g
   id="g96">
</g>
<g
   id="g98">
</g>
<g
   id="g100">
</g>
<g
   id="g102">
</g>
<g
   id="g104">
</g>
<g
   id="g106">
</g>
<g
   id="g108">
</g>
<g
   id="g110">
</g>
<g
   id="g112">
</g>
<g
   id="g114">
</g>
<g
   id="g116">
</g>
<g
   id="g859"
   transform="matrix(1.2888464,0,0,1.2888464,-16.488388,-16.389453)"><circle
     style="clip-rule:evenodd;fill:#000000;fill-opacity:1;fill-rule:evenodd;stroke-width:1.11160922"
     cx="37.671227"
     cy="57.065033"
     r="12.925792"
     id="circle42" /><g
     style="fill:#000000;fill-opacity:1"
     transform="matrix(1.1116092,0,0,1.1116092,-5.897187,20.070678)"
     id="g58">
						<circle
   style="clip-rule:evenodd;fill:#000000;fill-opacity:1;fill-rule:evenodd"
   cx="74.097"
   cy="33.279999"
   r="11.628"
   id="circle56" />
					</g><g
     transform="matrix(1.1116092,0,0,1.1116092,-6.435837,-7.4004732)"
     style="opacity:1;fill:#ffffff;fill-opacity:1;stroke:none"
     id="g2606"><path
       style="clip-rule:evenodd;fill:#ffffff;fill-opacity:1;fill-rule:evenodd;stroke:none;stroke-width:0.66750008"
       d="m 72.512,54.11013 c 0,-1.139423 0.92115,-2.067248 2.064578,-2.067248 1.14276,0 2.062575,0.927825 2.062575,2.067248 0,1.141425 -0.919815,2.067915 -2.062575,2.067915 C 73.43315,56.177377 72.512,55.251555 72.512,54.11013 Z"
       id="path62"
       inkscape:connector-curvature="0" /><path
       inkscape:connector-curvature="0"
       id="path252"
       d="m 72.511616,61.184453 c 0,-1.139423 0.92115,-2.067248 2.064578,-2.067248 1.14276,0 2.062575,0.927825 2.062575,2.067248 0,1.141425 -0.919815,2.067915 -2.062575,2.067915 -1.143428,-6.68e-4 -2.064578,-0.92649 -2.064578,-2.067915 z"
       style="clip-rule:evenodd;fill:#ffffff;fill-opacity:1;fill-rule:evenodd;stroke:none;stroke-width:0.66750008" /><path
       style="clip-rule:evenodd;fill:#ffffff;fill-opacity:1;fill-rule:evenodd;stroke:none;stroke-width:0.66750008"
       d="m 76.124859,57.708087 c 0,-1.139423 0.92115,-2.067248 2.064578,-2.067248 1.14276,0 2.062575,0.927825 2.062575,2.067248 0,1.141425 -0.919815,2.067915 -2.062575,2.067915 -1.143428,-6.68e-4 -2.064578,-0.92649 -2.064578,-2.067915 z"
       id="path254"
       inkscape:connector-curvature="0" /><path
       style="clip-rule:evenodd;fill:#ffffff;fill-opacity:1;fill-rule:evenodd;stroke:none;stroke-width:0.66750008"
       d="m 68.9,57.707862 c 0,-1.139423 0.92115,-2.067248 2.064578,-2.067248 1.14276,0 2.062575,0.927825 2.062575,2.067248 0,1.141425 -0.919815,2.067915 -2.062575,2.067915 C 69.82115,59.775109 68.9,58.849287 68.9,57.707862 Z"
       id="path256"
       inkscape:connector-curvature="0" /></g><path
     inkscape:connector-curvature="0"
     id="path74"
     d="m 66.689782,77.867687 c 0,4.554263 -3.691654,8.245917 -8.245917,8.245917 h -2.505567 c -4.553151,0 -8.245917,-3.691654 -8.245917,-8.245917 v 0 c 0,-4.554263 3.692766,-8.245917 8.245917,-8.245917 h 2.505567 c 4.554263,0 8.245917,3.691654 8.245917,8.245917 z"
     style="clip-rule:evenodd;opacity:0.5;fill:#ffffff;fill-opacity:1;fill-rule:evenodd;stroke-width:1.11160922" /><g
     style="opacity:0.5;fill:#000000;fill-opacity:1"
     transform="matrix(1.1116092,0,0,1.1116092,-5.897187,20.070678)"
     id="g78">
					<path
   inkscape:connector-curvature="0"
   id="path76"
   d="m 52.119,50.934 c -0.714,-0.837 -0.397,-1.521 0.702,-1.521 h 7.657 c 1.1,0 1.416,0.685 0.702,1.522 l -3.233,3.79 c -0.714,0.837 -1.882,0.837 -2.596,0 z"
   style="clip-rule:evenodd;fill:#000000;fill-opacity:1;fill-rule:evenodd" />
				</g><g
     transform="matrix(1.1116092,0,0,1.1116092,-6.166512,-7.1311482)"
     style="opacity:1;fill:#ffffff;fill-opacity:1;stroke:none;stroke-width:0;stroke-miterlimit:4;stroke-dasharray:none;stroke-opacity:1;paint-order:markers stroke fill"
     id="g1069"><rect
       style="fill:#ffffff;fill-opacity:1;stroke:none;stroke-width:0;stroke-miterlimit:4;stroke-dasharray:none;stroke-opacity:1;paint-order:markers stroke fill"
       id="rect258"
       width="3.5977323"
       height="10.793198"
       x="37.519207"
       y="52.339947" /><rect
       y="-44.714672"
       x="55.937679"
       height="10.793198"
       width="3.5977323"
       id="rect1065"
       style="fill:#ffffff;fill-opacity:1;stroke:none;stroke-width:0;stroke-miterlimit:4;stroke-dasharray:none;stroke-opacity:1;paint-order:markers stroke fill"
       transform="rotate(90)" /></g></g></svg>