<?xml version="1.0" encoding="UTF-8" standalone="no"?>
<!-- Generator: Adobe Illustrator 19.0.0, SVG Export Plug-In . SVG Version: 6.00 Build 0)  -->

<svg xmlns:dc="http://purl.org/dc/elements/1.1/" xmlns:cc="http://creativecommons.org/ns#" xmlns:rdf="http://www.w3.org/1999/02/22-rdf-syntax-ns#"
    xmlns="http://www.w3.org/2000/svg" xmlns:sodipodi="http://sodipodi.sourceforge.net/DTD/sodipodi-0.dtd"
    xmlns:inkscape="http://www.inkscape.org/namespaces/inkscape" version="1.1" id="Capa_1" x="0px" y="0px"
    viewBox="0 0 114.358 114.358" style="enable-background:new 0 0 114.358 114.358;" xml:space="preserve"
    sodipodi:docname="lemuroid_overlay.svg" inkscape:version="0.92.4 (f8dce91, 2019-08-02)"><metadata
   id="metadata123"><rdf:RDF><cc:Work
       rdf:about=""><dc:format>image/svg+xml</dc:format><dc:type
         rdf:resource="http://purl.org/dc/dcmitype/StillImage" /><dc:title /></cc:Work></rdf:RDF></metadata><defs
   id="defs121">
	
	

		
		
		
	
			
			
		
				
				
			
					
					
					
				
						
						
						
					
					
					
					
				
						
						
						
					
				
				
				
			</defs><sodipodi:namedview
   pagecolor="#ffffff"
   bordercolor="#666666"
   borderopacity="1"
   objecttolerance="10"
   gridtolerance="10"
   guidetolerance="10"
   inkscape:pageopacity="0"
   inkscape:pageshadow="2"
   inkscape:window-width="1862"
   inkscape:window-height="1051"
   id="namedview119"
   showgrid="false"
   inkscape:zoom="5.8370101"
   inkscape:cx="-12.414768"
   inkscape:cy="31.332601"
   inkscape:window-x="58"
   inkscape:window-y="0"
   inkscape:window-maximized="1"
   inkscape:current-layer="Capa_1" />

<g
   id="g88">
</g>
<g
   id="g90">
</g>
<g
   id="g92">
</g>
<g
   id="g94">
</g>
<g
   id="g96">
</g>
<g
   id="g98">
</g>
<g
   id="g100">
</g>
<g
   id="g102">
</g>
<g
   id="g104">
</g>
<g
   id="g106">
</g>
<g
   id="g108">
</g>
<g
   id="g110">
</g>
<g
   id="g112">
</g>
<g
   id="g114">
</g>
<g
   id="g116">
</g>
<circle
   id="circle42"
   r="12.925792"
   cy="57.065033"
   cx="37.671227"
   style="clip-rule:evenodd;fill:#000000;fill-opacity:1;fill-rule:evenodd;stroke-width:1.11160922" /><g
   id="g58"
   transform="matrix(1.1116092,0,0,1.1116092,-5.897187,20.070678)"
   style="fill:#000000;fill-opacity:1">
						<circle
   id="circle56"
   r="11.628"
   cy="33.279999"
   cx="74.097"
   style="clip-rule:evenodd;fill:#000000;fill-opacity:1;fill-rule:evenodd" />
					</g><g
   id="g2606"
   style="opacity:1;fill:#ffffff;fill-opacity:1;stroke:none"
   transform="matrix(1.1116092,0,0,1.1116092,-6.435837,-7.4004732)"><path
     inkscape:connector-curvature="0"
     id="path62"
     d="m 72.512,54.11013 c 0,-1.139423 0.92115,-2.067248 2.064578,-2.067248 1.14276,0 2.062575,0.927825 2.062575,2.067248 0,1.141425 -0.919815,2.067915 -2.062575,2.067915 C 73.43315,56.177377 72.512,55.251555 72.512,54.11013 Z"
     style="clip-rule:evenodd;fill:#ffffff;fill-opacity:1;fill-rule:evenodd;stroke-width:0.66750008;stroke:none" /><path
     style="clip-rule:evenodd;fill:#ffffff;fill-opacity:1;fill-rule:evenodd;stroke-width:0.66750008;stroke:none"
     d="m 72.511616,61.184453 c 0,-1.139423 0.92115,-2.067248 2.064578,-2.067248 1.14276,0 2.062575,0.927825 2.062575,2.067248 0,1.141425 -0.919815,2.067915 -2.062575,2.067915 -1.143428,-6.68e-4 -2.064578,-0.92649 -2.064578,-2.067915 z"
     id="path252"
     inkscape:connector-curvature="0" /><path
     inkscape:connector-curvature="0"
     id="path254"
     d="m 76.124859,57.708087 c 0,-1.139423 0.92115,-2.067248 2.064578,-2.067248 1.14276,0 2.062575,0.927825 2.062575,2.067248 0,1.141425 -0.919815,2.067915 -2.062575,2.067915 -1.143428,-6.68e-4 -2.064578,-0.92649 -2.064578,-2.067915 z"
     style="clip-rule:evenodd;fill:#ffffff;fill-opacity:1;fill-rule:evenodd;stroke-width:0.66750008;stroke:none" /><path
     inkscape:connector-curvature="0"
     id="path256"
     d="m 68.9,57.707862 c 0,-1.139423 0.92115,-2.067248 2.064578,-2.067248 1.14276,0 2.062575,0.927825 2.062575,2.067248 0,1.141425 -0.919815,2.067915 -2.062575,2.067915 C 69.82115,59.775109 68.9,58.849287 68.9,57.707862 Z"
     style="clip-rule:evenodd;fill:#ffffff;fill-opacity:1;fill-rule:evenodd;stroke-width:0.66750008;stroke:none" /></g><path
   style="clip-rule:evenodd;fill:#ffffff;fill-opacity:1;fill-rule:evenodd;stroke-width:1.11160922;opacity:0.5"
   d="m 66.689782,77.867687 c 0,4.554263 -3.691654,8.245917 -8.245917,8.245917 h -2.505567 c -4.553151,0 -8.245917,-3.691654 -8.245917,-8.245917 v 0 c 0,-4.554263 3.692766,-8.245917 8.245917,-8.245917 h 2.505567 c 4.554263,0 8.245917,3.691654 8.245917,8.245917 z"
   id="path74"
   inkscape:connector-curvature="0" /><g
   id="g78"
   transform="matrix(1.1116092,0,0,1.1116092,-5.897187,20.070678)"
   style="fill:#000000;fill-opacity:1;opacity:0.5">
					<path
   style="clip-rule:evenodd;fill:#000000;fill-opacity:1;fill-rule:evenodd"
   d="m 52.119,50.934 c -0.714,-0.837 -0.397,-1.521 0.702,-1.521 h 7.657 c 1.1,0 1.416,0.685 0.702,1.522 l -3.233,3.79 c -0.714,0.837 -1.882,0.837 -2.596,0 z"
   id="path76"
   inkscape:connector-curvature="0" />
				</g><g
   id="g1069"
   style="opacity:1;fill:#ffffff;stroke:none;stroke-width:0;stroke-miterlimit:4;stroke-dasharray:none;stroke-opacity:1;paint-order:markers stroke fill;fill-opacity:1"
   transform="matrix(1.1116092,0,0,1.1116092,-6.166512,-7.1311482)"><rect
     y="52.339947"
     x="37.519207"
     height="10.793198"
     width="3.5977323"
     id="rect258"
     style="fill:#ffffff;fill-opacity:1;stroke:none;stroke-width:0;stroke-miterlimit:4;stroke-dasharray:none;stroke-opacity:1;paint-order:markers stroke fill" /><rect
     transform="rotate(90)"
     style="fill:#ffffff;fill-opacity:1;stroke:none;stroke-width:0;stroke-miterlimit:4;stroke-dasharray:none;stroke-opacity:1;paint-order:markers stroke fill"
     id="rect1065"
     width="3.5977323"
     height="10.793198"
     x="55.937679"
     y="-44.714672" /></g></svg>