<?xml version="1.0" encoding="UTF-8" standalone="no"?>
<svg
   xmlns:dc="http://purl.org/dc/elements/1.1/"
   xmlns:cc="http://creativecommons.org/ns#"
   xmlns:rdf="http://www.w3.org/1999/02/22-rdf-syntax-ns#"
   xmlns:svg="http://www.w3.org/2000/svg"
   xmlns="http://www.w3.org/2000/svg"
   version="1.1"
   id="Capa_1"
   x="0px"
   y="0px"
   viewBox="0 0 320 180"
   xml:space="preserve"
   width="320"
   height="180"><metadata
   id="metadata123"><rdf:RDF><cc:Work
       rdf:about=""><dc:format>image/svg+xml</dc:format><dc:type
         rdf:resource="http://purl.org/dc/dcmitype/StillImage" /><dc:title></dc:title></cc:Work></rdf:RDF></metadata><defs
   id="defs121" /><rect
   style="opacity:1;fill:#242424;fill-opacity:1;stroke:none;stroke-width:0.999418;stroke-linejoin:round;stroke-opacity:1"
   id="rect843"
   width="320"
   height="180"
   x="0"
   y="0" />
<rect
   style="fill:#00c64e;fill-opacity:1;stroke:none;stroke-width:0.999418;stroke-linejoin:round;stroke-opacity:1"
   id="rect843-3"
   width="180"
   height="180"
   x="-6.7735596e-06"
   y="-7.798954e-07" /><ellipse
   style="clip-rule:evenodd;fill:#000000;fill-opacity:1;fill-rule:evenodd;stroke-width:1.4327;stroke:none"
   cx="55.125351"
   cy="54.099655"
   id="circle42-7"
   rx="23.126234"
   ry="23.113798" /><ellipse
   style="clip-rule:evenodd;fill:#000000;fill-opacity:1;fill-rule:evenodd;stroke-width:1.43269;stroke:none"
   cx="124.54184"
   cy="54.099651"
   id="circle56-3"
   rx="23.126234"
   ry="23.1138" /><path
   style="clip-rule:evenodd;fill:#ffffff;fill-opacity:1;fill-rule:evenodd;stroke:none;stroke-width:0.956321"
   d="m 120.4258,46.381485 c 0,-2.264911 1.83202,-4.109215 4.10611,-4.109215 2.27277,0 4.10214,1.844304 4.10214,4.109215 0,2.268892 -1.82937,4.110541 -4.10214,4.110541 -2.27409,-0.0013 -4.10611,-1.841649 -4.10611,-4.110541 z"
   id="path62-6" /><path
   id="path252-2"
   d="m 120.42503,60.443618 c 0,-2.264912 1.83203,-4.109215 4.10612,-4.109215 2.27277,0 4.10213,1.844303 4.10213,4.109215 0,2.268891 -1.82936,4.110541 -4.10213,4.110541 -2.27409,-0.0013 -4.10612,-1.84165 -4.10612,-4.110541 z"
   style="clip-rule:evenodd;fill:#ffffff;fill-opacity:1;fill-rule:evenodd;stroke:none;stroke-width:0.956321" /><path
   style="clip-rule:evenodd;fill:#ffffff;fill-opacity:1;fill-rule:evenodd;stroke:none;stroke-width:0.956321"
   d="m 127.6112,53.533399 c 0,-2.264912 1.83202,-4.109215 4.10611,-4.109215 2.27277,0 4.10214,1.844303 4.10214,4.109215 0,2.268892 -1.82937,4.110541 -4.10214,4.110541 -2.27409,-0.0013 -4.10611,-1.841649 -4.10611,-4.110541 z"
   id="path254-9" /><path
   style="clip-rule:evenodd;fill:#ffffff;fill-opacity:1;fill-rule:evenodd;stroke:none;stroke-width:0.956321"
   d="m 113.24211,53.532952 c 0,-2.264912 1.83202,-4.109215 4.10611,-4.109215 2.27277,0 4.10214,1.844303 4.10214,4.109215 0,2.268891 -1.82937,4.110541 -4.10214,4.110541 -2.27409,-0.0013 -4.10611,-1.84165 -4.10611,-4.110541 z"
   id="path256-1" /><path
   id="path74-2"
   d="m 107.04402,91.2988 c 0,8.143894 -6.60494,14.74528 -14.753217,14.74528 h -4.482846 c -8.146289,0 -14.753216,-6.601386 -14.753216,-14.74528 v 0 c 0,-8.143897 6.606927,-14.745284 14.753216,-14.745284 h 4.482846 c 8.148277,0 14.753217,6.601387 14.753217,14.745284 z"
   style="clip-rule:evenodd;opacity:0.5;fill:#ffffff;fill-opacity:1;fill-rule:evenodd;stroke-width:1.4327;stroke:none" /><path
   id="path76-0"
   d="m 80.831108,89.191763 c -1.420032,-1.663764 -0.789569,-3.0234 1.396166,-3.0234 h 15.22855 c 2.187724,0 2.816196,1.361623 1.396165,3.025387 l -6.42992,7.533652 c -1.420032,1.663762 -3.742997,1.663762 -5.163029,0 z"
   style="clip-rule:evenodd;opacity:0.5;fill:#000000;fill-opacity:1;fill-rule:evenodd;stroke-width:1.43269;stroke:none" /><rect
   style="fill:#ffffff;fill-opacity:1;stroke:none;stroke-width:0;stroke-miterlimit:4;stroke-dasharray:none;stroke-opacity:1;paint-order:markers stroke fill"
   id="rect258-3"
   width="7.1553144"
   height="21.454403"
   x="51.312588"
   y="43.344372" /><rect
   y="-65.623222"
   x="50.495838"
   height="21.465946"
   width="7.1514673"
   id="rect1065-6"
   style="fill:#ffffff;fill-opacity:1;stroke:none;stroke-width:0;stroke-miterlimit:4;stroke-dasharray:none;stroke-opacity:1;paint-order:markers stroke fill"
   transform="rotate(90)" /><path
   id="path867"
   style="fill:#00c64e;fill-opacity:1;stroke:none;"
   d="m 246.17188,106.20898 c -2.98802,-3.9e-4 -5.41016,2.42215 -5.41016,5.41016 v 5.87891 c 0,0.97899 0.26627,1.93955 0.76953,2.77929 -0.17893,0.29806 -0.32871,0.61266 -0.44727,0.93946 -0.90747,-0.80245 -1.87976,-1.52326 -2.94726,-2.07227 -2.10043,-1.08023 -4.41215,-1.5 -6.72852,-1.5 h -11.73437 c -1.53197,0 -3.02379,0.2633 -4.49219,0.69922 -1.31983,0.39182 -2.54169,1.03906 -3.68945,1.79492 -0.99391,-1.55333 -2.7106,-2.49339 -4.55469,-2.49414 h -14.68945 c -1.02934,0 -2.03453,0.1299 -3.0293,0.33985 -2.30152,0.47446 -4.40055,1.45379 -6.18945,2.83398 -0.2634,0.20055 -0.43563,0.48893 -0.68164,0.70898 -0.38549,-1.3101 -1.244,-2.37451 -2.34766,-3.05909 v 35.1875 c 0.43021,0.31762 0.0923,1.85792 3.11523,1.85792 h 6.50586 c 2.988,0 5.41016,-2.42214 5.41016,-5.41015 v -15.13477 h 10.12305 v 6 c 0.1798,2.50169 0.51968,4.99859 1.54297,6.83594 1.94924,3.49993 4.75,5.87727 8.48437,7.00781 1.46021,0.44206 2.95237,0.70117 4.49219,0.70117 h 11.73437 c 1.01277,0 2.01405,-0.0894 2.98828,-0.30273 1.13611,-0.2488 2.28742,-0.64116 3.20508,-1.04102 1.41378,-0.61604 2.43777,-1.35534 3.48047,-2.24023 0.77049,2.1489 2.80697,3.58398 5.08985,3.58398 h 6.50585 c 2.38886,0 4.49416,-1.56904 5.17969,-3.85742 1.37343,1.53189 3.35448,2.56585 5.20313,3.17187 1.50993,0.495 3.07778,0.68555 4.65429,0.68555 h 11.73633 c 1.01277,0 2.01405,-0.0894 2.98828,-0.30273 1.13611,-0.2488 2.29158,-0.63175 3.20508,-1.04102 3.73788,-1.67466 6.4235,-4.71605 7.66406,-8.51953 0.42374,-1.59918 0.67864,-3.27123 0.68555,-4.68164 v -29.34961 c 0,-2.98801 -2.42215,-5.41016 -5.41016,-5.41016 h -6.50586 c -2.988,0 -5.41015,2.42215 -5.41015,5.41016 v 6.02539 h -8.95313 c -1.53197,0 -3.02356,0.2638 -4.49023,0.69922 -1.74904,0.51924 -3.38898,1.39557 -4.80859,2.5293 -10e-4,10e-4 -0.002,0.003 -0.004,0.004 -0.21498,0.18092 -0.40366,0.39958 -0.57031,0.57032 -0.12736,-0.41001 -0.30308,-0.80341 -0.52344,-1.17188 0.50292,-0.83917 0.76953,-1.79901 0.76953,-2.77734 v -5.87891 c 0,-2.98801 -2.42215,-5.40977 -5.41016,-5.41016 z m -0.9668,21.36133 0.0215,0.0742 c -0.004,-0.0135 -0.0116,-0.0256 -0.0156,-0.0391 -0.004,-0.0114 -0.002,-0.0237 -0.006,-0.0352 z m -22.72461,7.39844 h 6.14453 v 3.21875 h -6.14453 z m 48.04297,0 h 6.14453 v 3.21875 h -6.14453 z" /><path
   id="path1074"
   style="fill:#242424;fill-opacity:1;stroke:none;"
   d="m 246.17188,111.61914 v 5.87891 h 6.50585 v -5.87891 z m 35.90624,0 v 29.34961 c 0,0.85076 -0.21667,1.50272 -0.65039,1.95313 -0.43372,0.45038 -1.09244,0.67578 -1.97656,0.67578 h -11.73633 c -0.85076,0 -1.505,-0.2212 -1.95117,-0.67578 -0.43799,-0.44626 -0.65039,-1.11784 -0.65039,-2.00196 v -8.75781 c 0,-0.85075 0.22953,-1.48975 0.67578,-1.92773 0.45459,-0.44618 1.10913,-0.67579 1.97656,-0.67579 h 11.68555 v -6.5039 h -11.73633 c -0.9008,0 -1.89021,0.13604 -2.95117,0.47461 -2.36526,0.75479 -4.20107,2.41972 -5.25586,4.40429 -0.6093,1.1464 -0.90039,2.56037 -0.90039,4.22852 v 8.80664 c 0,0.60053 0.0581,1.25441 0.20117,1.95313 0.14051,0.68597 0.36374,1.37124 0.67383,2.05078 1.06046,2.32394 2.93665,3.96037 5.23047,4.70507 0.88311,0.28671 1.88429,0.42579 3.00195,0.42579 h 11.73633 c 0.61722,0 1.27097,-0.0498 1.95117,-0.20118 3.24938,-0.7232 5.76501,-2.84159 6.75586,-5.90429 0.29069,-0.89853 0.42578,-1.91164 0.42578,-3.0293 V 111.61914 Z M 32.332031,114.2207 c 0,0 0,21.73568 0,32.60352 0,0.46709 0.09124,0.89912 0.25,1.30273 0.346707,0.88141 0.996809,1.34396 1.726563,1.72461 0.38455,0.20058 0.8337,0.25196 1.300781,0.25196 9.891927,0 29.675781,0 29.675781,0 v -6.50586 H 38.837891 V 114.2207 Z m 45.414063,8.83399 c -1.634785,0 -3.039524,0.27591 -4.177735,0.90039 -2.125354,1.16608 -3.642282,3.0073 -4.304687,5.1543 -0.318908,1.03365 -0.474609,2.00154 -0.47461,2.90234 -3e-6,3.04427 0,6.08854 0,9.13281 0,1.63479 0.280017,3.03924 0.900391,4.17969 1.158373,2.12946 2.980824,3.63603 5.130859,4.30273 1.048439,0.32511 2.024982,0.47657 2.925782,0.47657 3.912109,0 11.736328,0 11.736328,0 v -6.20704 c 0,0 -7.790365,0 -11.685547,0 -0.800711,0 -1.480539,-0.23669 -2.027344,-0.7246 -0.537523,-0.47963 -0.800781,-1.15991 -0.800781,-2.02735 0,-3.02734 0,-6.05469 0,-9.08203 0,-0.80071 0.246931,-1.46444 0.726562,-2.00195 0.487922,-0.54681 1.166664,-0.82617 2.050782,-0.82617 3.912109,0 11.736328,0 11.736328,0 0.767348,0 1.413651,0.24497 1.951172,0.7246 0.546807,0.48792 0.826172,1.1512 0.826172,2.00196 0,0.8007 -0.23669,1.48053 -0.72461,2.02734 -0.479634,0.53752 -1.168616,0.80078 -2.052734,0.80078 H 77.746094 v 6.17969 h 11.736328 c 1.634785,0 3.027637,-0.28557 4.154297,-0.90039 2.121852,-1.1579 3.662142,-2.98276 4.328125,-5.12891 0.325324,-1.04837 0.474609,-2.02693 0.474609,-2.92773 0,-1.63479 -0.281784,-3.02971 -0.900391,-4.1543 -1.165964,-2.11964 -3.00968,-3.66609 -5.154296,-4.32812 -1.033602,-0.31906 -2.001545,-0.47461 -2.902344,-0.47461 0,0 -7.824219,0 -11.736328,0 z m 28.351566,0 c -0.4504,0 -0.87699,0.0832 -1.27735,0.25 -1.34542,0.61077 -1.80619,1.67701 -2.00195,2.97656 v 23.82227 h 6.50586 v -20.54493 h 8.45898 c 0.88412,0 1.54737,0.22961 2.00196,0.67579 0.44625,0.43799 0.67382,1.07698 0.67382,1.92773 v 17.94141 h 6.50586 v -17.94141 c 0,-0.93416 -0.10735,-1.8028 -0.32422,-2.60352 h 5.85547 c 0.88412,0 1.52556,0.23348 1.95118,0.67579 0.4253,0.44198 0.65039,1.07698 0.65039,1.92773 v 17.94141 h 6.50586 v -17.94141 c 0,-1.11765 -0.13664,-2.1216 -0.42579,-3.00391 -1.0769,-3.28604 -3.62391,-5.0683 -6.73046,-5.8789 -0.67754,-0.17679 -1.33396,-0.22461 -1.95118,-0.22461 h -8.80859 v 2 c -0.93417,-0.70063 -1.91888,-1.20845 -2.95312,-1.52539 -1.03426,-0.31695 -2.00155,-0.47461 -2.90235,-0.47461 z m 41.08593,0 v 15.01172 c 0,1.46796 0.16292,2.79414 0.55079,3.95507 1.38508,4.14565 4.79327,6.95536 8.9082,7.80664 0.91625,0.18955 1.77546,0.2754 2.57617,0.2754 h 14.71289 c 0.4504,0 0.86828,-0.0851 1.25195,-0.25196 1.36307,-0.60963 1.79024,-1.72253 1.97657,-3.02734 v -23.76953 h -6.50586 v 20.54297 h -11.38477 c -0.78403,0 -1.5209,-0.11693 -2.20117,-0.37696 -1.44727,-0.55321 -2.31938,-1.64356 -2.95313,-2.85156 -0.34397,-0.65565 -0.42578,-1.45198 -0.42578,-2.30273 v -15.01172 z m 45.06446,0 c -0.60054,0 -1.25107,0.0721 -1.95117,0.22461 -3.21788,0.70086 -5.7727,2.85356 -6.75586,5.8789 -0.28696,0.88303 -0.42579,1.88626 -0.42579,3.00391 v 17.94141 h 6.50586 v -17.94141 c 0,-0.85075 0.22953,-1.48974 0.67579,-1.92773 0.45458,-0.44617 1.11783,-0.67579 2.00195,-0.67579 h 14.63867 v -6.5039 z m 27.42578,0 c -0.9008,0 -1.89217,0.13604 -2.95313,0.47461 -2.36526,0.75478 -4.20107,2.41972 -5.25586,4.40429 -0.6093,1.1464 -0.90039,2.56037 -0.90039,4.22852 v 8.80664 c 0,1.68483 0.27148,3.12664 0.90039,4.2793 1.18471,2.17133 3.05707,3.71439 5.25586,4.3789 1.06605,0.32218 2.05233,0.47657 2.95313,0.47657 h 11.73437 c 0.61722,0 1.27097,-0.0498 1.95118,-0.20118 3.24938,-0.72319 5.76499,-2.8416 6.75585,-5.90429 0.2907,-0.89853 0.42579,-1.91164 0.42579,-3.0293 v -8.80664 c 0,-0.91748 -0.1556,-1.91433 -0.5,-2.97852 -0.7582,-2.34283 -2.39655,-4.19775 -4.37891,-5.22851 -1.165,-0.60576 -2.58576,-0.90039 -4.25391,-0.90039 z m 26.49805,0 v 27.04883 h 6.50585 v -27.04883 z m -26.44922,6.5039 h 11.68554 c 0.85076,0 1.50076,0.21863 1.95118,0.65235 0.4504,0.43372 0.67578,1.0992 0.67578,2 v 8.75781 c 0,0.85076 -0.21667,1.50272 -0.65039,1.95313 -0.43372,0.4504 -1.09245,0.67578 -1.97657,0.67578 h -11.68554 c -0.86744,0 -1.52617,-0.22539 -1.97657,-0.67578 -0.4504,-0.4504 -0.67578,-1.10237 -0.67578,-1.95313 v -8.80664 c 0,-0.85075 0.22953,-1.48975 0.67578,-1.92773 0.45459,-0.44618 1.10913,-0.67579 1.97657,-0.67579 z" /></svg>
