<?xml version="1.0" encoding="UTF-8" standalone="no"?>
<svg
   xmlns:dc="http://purl.org/dc/elements/1.1/"
   xmlns:cc="http://creativecommons.org/ns#"
   xmlns:rdf="http://www.w3.org/1999/02/22-rdf-syntax-ns#"
   xmlns:svg="http://www.w3.org/2000/svg"
   xmlns="http://www.w3.org/2000/svg"
   version="1.1"
   id="Capa_1"
   x="0px"
   y="0px"
   viewBox="0 0 320 180"
   xml:space="preserve"
   width="320"
   height="180"><metadata
   id="metadata123"><rdf:RDF><cc:Work
       rdf:about=""><dc:format>image/svg+xml</dc:format><dc:type
         rdf:resource="http://purl.org/dc/dcmitype/StillImage" /><dc:title></dc:title></cc:Work></rdf:RDF></metadata><defs
   id="defs121" />

<rect
   style="opacity:1;fill:#242424;fill-opacity:1;stroke:none;stroke-width:0.999418;stroke-linejoin:round;stroke-opacity:1"
   id="rect843"
   width="320"
   height="180"
   x="0"
   y="0" /><g
   id="g88">
</g>
<rect
   style="fill:#00c64e;fill-opacity:1;stroke:none;stroke-width:0.999418;stroke-linejoin:round;stroke-opacity:1"
   id="rect843-3"
   width="180"
   height="180"
   x="-6.7735596e-06"
   y="-7.798954e-07" /><g
   id="g913"><ellipse
     style="clip-rule:evenodd;fill:#000000;fill-opacity:1;fill-rule:evenodd;stroke-width:1.4327"
     cx="55.125351"
     cy="56.844223"
     id="circle42-7"
     rx="23.126234"
     ry="23.113798" /><ellipse
     style="clip-rule:evenodd;fill:#000000;fill-opacity:1;fill-rule:evenodd;stroke-width:1.43269"
     cx="124.54184"
     cy="56.844219"
     id="circle56-3"
     rx="23.126234"
     ry="23.1138" /><path
     style="clip-rule:evenodd;fill:#ffffff;fill-opacity:1;fill-rule:evenodd;stroke:none;stroke-width:0.956321"
     d="m 120.4258,49.126051 c 0,-2.264911 1.83202,-4.109215 4.10611,-4.109215 2.27277,0 4.10214,1.844304 4.10214,4.109215 0,2.268892 -1.82937,4.110541 -4.10214,4.110541 -2.27409,-0.0013 -4.10611,-1.841649 -4.10611,-4.110541 z"
     id="path62-6" /><path
     id="path252-2"
     d="m 120.42503,63.188184 c 0,-2.264912 1.83203,-4.109215 4.10612,-4.109215 2.27277,0 4.10213,1.844303 4.10213,4.109215 0,2.268891 -1.82936,4.110541 -4.10213,4.110541 -2.27409,-0.0013 -4.10612,-1.84165 -4.10612,-4.110541 z"
     style="clip-rule:evenodd;fill:#ffffff;fill-opacity:1;fill-rule:evenodd;stroke:none;stroke-width:0.956321" /><path
     style="clip-rule:evenodd;fill:#ffffff;fill-opacity:1;fill-rule:evenodd;stroke:none;stroke-width:0.956321"
     d="m 127.6112,56.277965 c 0,-2.264912 1.83202,-4.109215 4.10611,-4.109215 2.27277,0 4.10214,1.844303 4.10214,4.109215 0,2.268892 -1.82937,4.110541 -4.10214,4.110541 -2.27409,-0.0013 -4.10611,-1.841649 -4.10611,-4.110541 z"
     id="path254-9" /><path
     style="clip-rule:evenodd;fill:#ffffff;fill-opacity:1;fill-rule:evenodd;stroke:none;stroke-width:0.956321"
     d="m 113.24211,56.277518 c 0,-2.264912 1.83202,-4.109215 4.10611,-4.109215 2.27277,0 4.10214,1.844303 4.10214,4.109215 0,2.268891 -1.82937,4.110541 -4.10214,4.110541 -2.27409,-0.0013 -4.10611,-1.84165 -4.10611,-4.110541 z"
     id="path256-1" /><path
     id="path74-2"
     d="m 107.04402,94.043366 c 0,8.143894 -6.60494,14.745284 -14.753217,14.745284 h -4.482846 c -8.146289,0 -14.753216,-6.60139 -14.753216,-14.745284 v 0 c 0,-8.143897 6.606927,-14.745284 14.753216,-14.745284 h 4.482846 c 8.148277,0 14.753217,6.601387 14.753217,14.745284 z"
     style="clip-rule:evenodd;opacity:0.5;fill:#ffffff;fill-opacity:1;fill-rule:evenodd;stroke-width:1.4327" /><path
     id="path76-0"
     d="m 80.831108,91.936329 c -1.420032,-1.663764 -0.789569,-3.0234 1.396166,-3.0234 h 15.22855 c 2.187724,0 2.816196,1.361623 1.396165,3.025387 l -6.42992,7.533652 c -1.420032,1.663762 -3.742997,1.663762 -5.163029,0 z"
     style="clip-rule:evenodd;opacity:0.5;fill:#000000;fill-opacity:1;fill-rule:evenodd;stroke-width:1.43269" /><rect
     style="fill:#ffffff;fill-opacity:1;stroke:none;stroke-width:0;stroke-miterlimit:4;stroke-dasharray:none;stroke-opacity:1;paint-order:markers stroke fill"
     id="rect258-3"
     width="7.1553144"
     height="21.454403"
     x="51.312588"
     y="46.08894" /><rect
     y="-65.623222"
     x="53.240406"
     height="21.465946"
     width="7.1514673"
     id="rect1065-6"
     style="fill:#ffffff;fill-opacity:1;stroke:none;stroke-width:0;stroke-miterlimit:4;stroke-dasharray:none;stroke-opacity:1;paint-order:markers stroke fill"
     transform="rotate(90)" /></g><path
   id="path1065"
   style="font-style:normal;font-variant:normal;font-weight:normal;font-stretch:normal;font-size:51.2455px;line-height:1.25;font-family:Audiowide;-inkscape-font-specification:Audiowide;letter-spacing:0px;word-spacing:0px;fill:#00c64e;fill-opacity:1;stroke:none;stroke-width:0.999994"
   d="M 246.17188 111.61914 L 246.17188 117.49805 L 252.67773 117.49805 L 252.67773 111.61914 L 246.17188 111.61914 z M 282.07812 111.61914 L 282.07812 140.96875 C 282.07812 141.81951 281.86145 142.47147 281.42773 142.92188 C 280.99401 143.37227 280.33529 143.59766 279.45117 143.59766 L 267.71484 143.59766 C 266.86408 143.59766 266.21407 143.37228 265.76367 142.92188 C 265.32995 142.47147 265.11328 141.80404 265.11328 140.91992 L 265.11328 132.16211 C 265.11328 131.31136 265.33866 130.66809 265.78906 130.23438 C 266.23946 129.78397 266.89819 129.55859 267.76562 129.55859 L 279.45117 129.55859 L 279.45117 123.05469 L 267.71484 123.05469 C 266.81404 123.05469 265.83129 123.21235 264.76367 123.5293 C 263.69606 123.84624 262.70264 124.37148 261.78516 125.10547 C 260.88436 125.82277 260.12503 126.76589 259.50781 127.93359 C 258.90728 129.08461 258.60742 130.49396 258.60742 132.16211 L 258.60742 140.96875 C 258.60742 141.56928 258.67514 142.22125 258.80859 142.92188 C 258.95873 143.60581 259.18216 144.28872 259.48242 144.97266 C 259.78269 145.63992 260.16769 146.28318 260.63477 146.90039 C 261.11853 147.5176 261.69407 148.06701 262.36133 148.55078 C 263.04527 149.01786 263.82877 149.39415 264.71289 149.67773 C 265.59701 149.96131 266.59718 150.10352 267.71484 150.10352 L 279.45117 150.10352 C 280.06839 150.10352 280.7184 150.03579 281.40234 149.90234 C 282.10296 149.75221 282.78782 149.52683 283.45508 149.22656 C 284.13902 148.9263 284.78904 148.54326 285.40625 148.07617 C 286.02346 147.59241 286.56612 147.01687 287.0332 146.34961 C 287.50028 145.66567 287.87462 144.88217 288.1582 143.99805 C 288.44178 143.09725 288.58398 142.08641 288.58398 140.96875 L 288.58398 111.61914 L 282.07812 111.61914 z M 192.24805 123.05469 C 191.64751 123.05469 190.9975 123.12916 190.29688 123.2793 C 189.61294 123.41275 188.93003 123.62942 188.24609 123.92969 C 187.57883 124.22995 186.93558 124.62171 186.31836 125.10547 C 185.70115 125.57255 185.14978 126.14809 184.66602 126.83203 C 184.19894 127.49929 183.8246 128.27408 183.54102 129.1582 C 183.25743 130.04232 183.11523 131.04446 183.11523 132.16211 L 183.11523 150.10352 L 189.62109 150.10352 L 189.62109 132.16211 C 189.62109 131.31136 189.84647 130.66809 190.29688 130.23438 C 190.74727 129.78397 191.41471 129.55859 192.29883 129.55859 L 206.9375 129.55859 L 206.9375 123.05469 L 192.24805 123.05469 z M 219.67383 123.05469 C 218.77303 123.05469 217.78832 123.21235 216.7207 123.5293 C 215.65308 123.84624 214.65967 124.37148 213.74219 125.10547 C 212.84139 125.82277 212.08206 126.76589 211.46484 127.93359 C 210.86431 129.08461 210.56445 130.49396 210.56445 132.16211 L 210.56445 140.96875 C 210.56445 142.65358 210.86431 144.08035 211.46484 145.24805 C 212.08206 146.39907 212.84139 147.34219 213.74219 148.07617 C 214.65967 148.79348 215.65308 149.31001 216.7207 149.62695 C 217.78832 149.9439 218.77303 150.10352 219.67383 150.10352 L 231.4082 150.10352 C 232.02542 150.10352 232.67543 150.03579 233.35938 149.90234 C 234.05999 149.75221 234.74485 149.52683 235.41211 149.22656 C 236.09605 148.9263 236.74606 148.54326 237.36328 148.07617 C 237.98049 147.59241 238.52315 147.01687 238.99023 146.34961 C 239.45731 145.66567 239.83165 144.88217 240.11523 143.99805 C 240.39882 143.09725 240.54102 142.08641 240.54102 140.96875 L 240.54102 132.16211 C 240.54102 131.24463 240.37465 130.25121 240.04102 129.18359 C 239.72407 128.11598 239.20754 127.13322 238.49023 126.23242 C 237.77293 125.31494 236.82982 124.55561 235.66211 123.95508 C 234.49441 123.35454 233.07635 123.05469 231.4082 123.05469 L 219.67383 123.05469 z M 246.17188 123.05469 L 246.17188 150.10352 L 252.67773 150.10352 L 252.67773 123.05469 L 246.17188 123.05469 z M 219.72266 129.55859 L 231.4082 129.55859 C 232.25896 129.55859 232.90897 129.77722 233.35938 130.21094 C 233.80978 130.64466 234.03516 131.31014 234.03516 132.21094 L 234.03516 140.96875 C 234.03516 141.81951 233.81849 142.47147 233.38477 142.92188 C 232.95105 143.37228 232.29232 143.59766 231.4082 143.59766 L 219.72266 143.59766 C 218.85522 143.59766 218.19649 143.37228 217.74609 142.92188 C 217.29569 142.47148 217.07031 141.81951 217.07031 140.96875 L 217.07031 132.16211 C 217.07031 131.31136 217.29569 130.66809 217.74609 130.23438 C 218.19649 129.78397 218.85522 129.55859 219.72266 129.55859 z " /><path
   id="path1074"
   style="font-style:normal;font-variant:normal;font-weight:normal;font-stretch:normal;font-size:51.2455px;line-height:1.25;font-family:Audiowide;-inkscape-font-specification:Audiowide;letter-spacing:0px;word-spacing:0px;fill:#242424;fill-opacity:1;stroke:none;stroke-width:0.999994"
   d="M 32.332031 114.2207 L 32.332031 146.82422 C 32.332031 147.29131 32.415217 147.7266 32.582031 148.12695 C 32.748846 148.52731 32.974227 148.87747 33.257812 149.17773 C 33.558079 149.46132 33.908238 149.68475 34.308594 149.85156 C 34.708949 150.01838 35.142294 150.10352 35.609375 150.10352 L 65.285156 150.10352 L 65.285156 143.59766 L 38.837891 143.59766 L 38.837891 114.2207 L 32.332031 114.2207 z M 77.746094 123.05469 C 76.111309 123.05469 74.719381 123.35454 73.568359 123.95508 C 72.434019 124.55561 71.50832 125.30623 70.791016 126.20703 C 70.090394 127.09114 69.58062 128.05844 69.263672 129.10938 C 68.946724 130.14363 68.789062 131.11092 68.789062 132.01172 L 68.789062 141.14453 C 68.789062 142.77932 69.08892 144.1732 69.689453 145.32422 C 70.289986 146.45856 71.031898 147.38426 71.916016 148.10156 C 72.816816 148.80218 73.786061 149.31001 74.820312 149.62695 C 75.871246 149.9439 76.845294 150.10352 77.746094 150.10352 L 89.482422 150.10352 L 89.482422 143.89648 L 77.796875 143.89648 C 76.996164 143.89648 76.32002 143.65563 75.769531 143.17188 C 75.235724 142.68812 74.96875 142.01197 74.96875 141.14453 L 74.96875 132.0625 C 74.96875 131.26179 75.211549 130.59435 75.695312 130.06055 C 76.179075 129.51006 76.861976 129.23438 77.746094 129.23438 L 89.482422 129.23438 C 90.24977 129.23438 90.899786 129.47522 91.433594 129.95898 C 91.984082 130.44274 92.259766 131.11018 92.259766 131.96094 C 92.259766 132.76164 92.018919 133.43779 91.535156 133.98828 C 91.051393 134.52209 90.36654 134.78906 89.482422 134.78906 L 77.746094 134.78906 L 77.746094 140.96875 L 89.482422 140.96875 C 91.117207 140.96875 92.502378 140.66889 93.636719 140.06836 C 94.787741 139.46783 95.71344 138.72592 96.414062 137.8418 C 97.131366 136.941 97.647896 135.97371 97.964844 134.93945 C 98.281792 133.88852 98.439453 132.91252 98.439453 132.01172 C 98.439453 130.37693 98.139596 128.99176 97.539062 127.85742 C 96.93853 126.7064 96.187909 125.7807 95.287109 125.08008 C 94.402991 124.36277 93.435698 123.84624 92.384766 123.5293 C 91.350514 123.21235 90.383221 123.05469 89.482422 123.05469 L 77.746094 123.05469 z M 106.09766 123.05469 C 105.64726 123.05469 105.22067 123.13787 104.82031 123.30469 C 104.41996 123.4715 104.0698 123.70364 103.76953 124.00391 C 103.46926 124.28749 103.23713 124.6309 103.07031 125.03125 C 102.9035 125.41492 102.81836 125.83085 102.81836 126.28125 L 102.81836 150.10352 L 109.32422 150.10352 L 109.32422 129.55859 L 117.7832 129.55859 C 118.66732 129.55859 119.33476 129.78397 119.78516 130.23438 C 120.23556 130.6681 120.45898 131.31136 120.45898 132.16211 L 120.45898 150.10352 L 126.96484 150.10352 L 126.96484 132.16211 C 126.96484 131.22795 126.85748 130.35931 126.64062 129.55859 L 132.49609 129.55859 C 133.38021 129.55859 134.03023 129.78397 134.44727 130.23438 C 134.88099 130.6681 135.09766 131.31136 135.09766 132.16211 L 135.09766 150.10352 L 141.60352 150.10352 L 141.60352 132.16211 C 141.60352 131.04446 141.46131 130.04232 141.17773 129.1582 C 140.89415 128.27408 140.51981 127.49929 140.05273 126.83203 C 139.58565 126.14809 139.04299 125.57255 138.42578 125.10547 C 137.80857 124.62171 137.15855 124.22995 136.47461 123.92969 C 135.80735 123.62942 135.13121 123.41275 134.44727 123.2793 C 133.76333 123.12916 133.11331 123.05469 132.49609 123.05469 L 123.6875 123.05469 L 123.6875 125.05469 C 122.75333 124.35406 121.76863 123.84624 120.73438 123.5293 C 119.70013 123.21235 118.73283 123.05469 117.83203 123.05469 L 106.09766 123.05469 z M 147.18359 123.05469 L 147.18359 138.06641 C 147.18359 139.53437 147.36738 140.85378 147.73438 142.02148 C 148.11805 143.18918 148.61911 144.22225 149.23633 145.12305 C 149.85355 146.00717 150.56933 146.7665 151.38672 147.40039 C 152.2208 148.01761 153.08073 148.53414 153.96484 148.95117 C 154.84896 149.35153 155.74178 149.64463 156.64258 149.82812 C 157.56006 150.01162 158.41804 150.10352 159.21875 150.10352 L 173.93164 150.10352 C 174.38204 150.10352 174.79992 150.01838 175.18359 149.85156 C 175.58395 149.68475 175.9254 149.46132 176.20898 149.17773 C 176.50925 148.87747 176.74334 148.52731 176.91016 148.12695 C 177.07697 147.7266 177.16016 147.29131 177.16016 146.82422 L 177.16016 123.05469 L 170.6543 123.05469 L 170.6543 143.59766 L 159.26953 143.59766 C 158.4855 143.59766 157.7523 143.47093 157.06836 143.2207 C 156.4011 142.9538 155.81685 142.57947 155.31641 142.0957 C 154.81597 141.61194 154.4155 141.0364 154.11523 140.36914 C 153.83165 139.6852 153.68945 138.91716 153.68945 138.06641 L 153.68945 123.05469 L 147.18359 123.05469 z " /></svg>
