<?xml version="1.0" encoding="UTF-8" standalone="no"?>
<svg
   xmlns:dc="http://purl.org/dc/elements/1.1/"
   xmlns:cc="http://creativecommons.org/ns#"
   xmlns:rdf="http://www.w3.org/1999/02/22-rdf-syntax-ns#"
   xmlns:svg="http://www.w3.org/2000/svg"
   xmlns="http://www.w3.org/2000/svg"
   version="1.1"
   id="Capa_1"
   x="0px"
   y="0px"
   viewBox="0 0 320 180"
   xml:space="preserve"
   width="320"
   height="180"><metadata
   id="metadata123"><rdf:RDF><cc:Work
       rdf:about=""><dc:format>image/svg+xml</dc:format><dc:type
         rdf:resource="http://purl.org/dc/dcmitype/StillImage" /><dc:title></dc:title></cc:Work></rdf:RDF></metadata><defs
   id="defs121" /><rect
   style="opacity:1;fill:#242424;fill-opacity:1;stroke:none;stroke-width:0.999418;stroke-linejoin:round;stroke-opacity:1"
   id="rect843"
   width="320"
   height="180"
   x="0"
   y="0" />
<rect
   style="fill:#00c64e;fill-opacity:1;stroke:none;stroke-width:0.999416;stroke-linejoin:round;stroke-opacity:1"
   id="rect843-3"
   width="160"
   height="180"
   x="80"
   y="-7.798954e-07" /><ellipse
   style="clip-rule:evenodd;fill:#000000;fill-opacity:1;fill-rule:evenodd;stroke:none;stroke-width:1.4327"
   cx="121.59164"
   cy="50.559429"
   id="circle42-7"
   rx="25.59164"
   ry="25.559427" /><ellipse
   style="clip-rule:evenodd;fill:#000000;fill-opacity:1;fill-rule:evenodd;stroke:none;stroke-width:1.43269"
   cx="198.40836"
   cy="50.559429"
   id="circle56-3"
   rx="25.59164"
   ry="25.559431" /><path
   style="clip-rule:evenodd;fill:#ffffff;fill-opacity:1;fill-rule:evenodd;stroke:none;stroke-width:0.956321"
   d="m 193.85355,42.024611 c 0,-2.504555 2.02732,-4.543997 4.54384,-4.543997 2.51506,0 4.53945,2.039442 4.53945,4.543997 0,2.508969 -2.02439,4.545469 -4.53945,4.545469 -2.51652,-0.0011 -4.54384,-2.0365 -4.54384,-4.545469 z"
   id="path62-6" /><path
   id="path252-2"
   d="m 193.8527,57.574642 c 0,-2.504568 2.02733,-4.54401 4.54385,-4.54401 2.51506,0 4.53944,2.039442 4.53944,4.54401 0,2.508957 -2.02438,4.545468 -4.53944,4.545468 -2.51652,-0.0011 -4.54385,-2.036511 -4.54385,-4.545468 z"
   style="clip-rule:evenodd;fill:#ffffff;fill-opacity:1;fill-rule:evenodd;stroke:none;stroke-width:0.956321" /><path
   style="clip-rule:evenodd;fill:#ffffff;fill-opacity:1;fill-rule:evenodd;stroke:none;stroke-width:0.956321"
   d="m 201.80495,49.933263 c 0,-2.504555 2.02733,-4.544008 4.54386,-4.544008 2.51506,0 4.53945,2.039453 4.53945,4.544008 0,2.508958 -2.02439,4.545469 -4.53945,4.545469 -2.51653,-0.0011 -4.54386,-2.036511 -4.54386,-4.545469 z"
   id="path254-9" /><path
   style="clip-rule:evenodd;fill:#ffffff;fill-opacity:1;fill-rule:evenodd;stroke:none;stroke-width:0.956321"
   d="m 185.90403,49.932766 c 0,-2.504556 2.02732,-4.543999 4.54385,-4.543999 2.51506,0 4.53945,2.039443 4.53945,4.543999 0,2.508957 -2.02439,4.545469 -4.53945,4.545469 -2.51653,-0.0011 -4.54385,-2.036512 -4.54385,-4.545469 z"
   id="path256-1" /><path
   id="path74-2"
   d="m 179.04518,91.694552 c 0,9.005578 -7.30907,16.305448 -16.326,16.305448 h -4.96075 c -9.01474,0 -16.326,-7.29987 -16.326,-16.305448 v 0 c 0,-9.005591 7.31126,-16.305462 16.326,-16.305462 h 4.96075 c 9.01693,0 16.326,7.299871 16.326,16.305462 z"
   style="clip-rule:evenodd;opacity:0.5;fill:#ffffff;fill-opacity:1;fill-rule:evenodd;stroke:none;stroke-width:1.4327" /><path
   id="path76-0"
   d="m 150.03781,89.36457 c -1.57142,-1.839799 -0.87375,-3.3433 1.545,-3.3433 h 16.85202 c 2.42094,0 3.11641,1.50569 1.54499,3.345501 l -7.11538,8.330768 c -1.57142,1.839799 -4.14202,1.839799 -5.71344,0 z"
   style="clip-rule:evenodd;opacity:0.5;fill:#000000;fill-opacity:1;fill-rule:evenodd;stroke:none;stroke-width:1.43269" /><rect
   style="fill:#ffffff;fill-opacity:1;stroke:none;stroke-width:0;stroke-miterlimit:4;stroke-dasharray:none;stroke-opacity:1;paint-order:markers stroke fill"
   id="rect258-3"
   width="7.9181175"
   height="23.724455"
   x="117.37241"
   y="38.666153" /><rect
   y="-133.20866"
   x="46.574295"
   height="23.754354"
   width="7.9081511"
   id="rect1065-6"
   style="fill:#ffffff;fill-opacity:1;stroke:none;stroke-width:0;stroke-miterlimit:4;stroke-dasharray:none;stroke-opacity:1;paint-order:markers stroke fill"
   transform="rotate(90)" /><path
   id="rect1252"
   style="fill:#407153;fill-opacity:1;stroke:none;stroke-width:0.999416;stroke-linejoin:round;stroke-opacity:1"
   d="m 80,136.01461 c 78.70501,12.75322 84.99209,12.75322 160,0 V 180 H 80 Z" /><path
   id="path1133"
   style="fill:#242424;fill-opacity:1;stroke:none;stroke-width:1"
   d="m 80,128.00002 v 45.99994 h 3.550777 a 5.9927921,6.7035005 0 0 0 5.994134,-6.70282 v -5.65633 c 0.448283,-0.20325 0.912363,-0.28584 1.349607,-0.55273 0.363807,-0.22208 0.682571,-0.52013 1.029296,-0.77122 v 6.98028 a 5.9927921,6.7035005 0 0 0 5.992181,6.70282 h 7.007805 a 5.9927921,6.7035005 0 0 0 5.99022,-6.70282 v -18.05261 h 0.01 v 18.05261 a 5.9927921,6.7035005 0 0 0 5.99414,6.70282 h 7.0078 a 5.9927921,6.7035005 0 0 0 4.3789,-2.13014 5.9927921,6.7035005 0 0 0 4.38086,2.13014 h 7.0078 a 5.9927921,6.7035005 0 0 0 5.93554,-5.78523 c 2.542,2.64001 5.6534,4.52758 9.04881,5.31332 1.36448,0.31575 2.70066,0.47191 3.99024,0.47191 h 15.84763 c 1.2395,0 2.5465,-0.28094 3.73828,-0.86079 a 5.9927921,6.7035005 0 0 0 0.0566,-0.0284 c 0.63802,-0.31918 1.1545,-0.80917 1.67968,-1.28463 a 5.9927921,6.7035005 0 0 0 4.41602,2.17379 h 7.0078 a 5.9927921,6.7035005 0 0 0 5.99413,-6.70282 v -18.05259 h 10.57226 v 7.04364 c 0,2.75039 0.36685,5.62804 1.70312,8.3676 1.97618,4.05148 5.2615,7.15399 9.18749,8.4812 1.61756,0.54684 3.25693,0.86298 4.91406,0.86298 h 12.6406 c 0.99105,0 2.15143,-0.093 3.40234,-0.40419 0.0579,-0.0145 0.11419,-0.0351 0.17188,-0.0503 v -45.16099 c -1.18063,-0.26475 -2.38075,-0.38452 -3.57617,-0.38451 h -12.6408 c -1.57652,0 -3.2757,0.27517 -5.00194,0.89138 -1.37551,0.491 -2.59667,1.23153 -3.74609,2.06896 A 5.9927921,6.7035005 0 0 0 210.06626,128 H 194.244 c -1.12991,0 -2.25701,0.15482 -3.3789,0.42822 -2.67318,0.65124 -5.17091,2.05777 -7.22069,4.05489 A 5.9927921,6.7035005 0 0 0 177.99207,128 h -7.0078 a 5.9927921,6.7035005 0 0 0 -5.99218,6.70501 v 18.04821 h -6.27148 c -0.0186,0 7.6e-4,3.8e-4 -0.0156,0 V 134.70501 A 5.9927921,6.7035005 0 0 0 152.71087,128 h -7.00781 a 5.9927921,6.7035005 0 0 0 -5.58592,4.28428 c -2.01579,-1.84751 -4.34887,-3.13226 -6.61913,-3.79489 C 132.11154,128.08468 130.86046,128 129.88277,128 h -9.48827 a 5.9927921,6.7035005 0 0 0 -2.58788,0.66197 c -1.2211,-0.32935 -2.44465,-0.66198 -3.71875,-0.66197 h -12.64061 c -1.22407,0 -2.508561,0.27247 -3.681636,0.81928 a 5.9927921,6.7035005 0 0 0 -0.169922,0.083 c -1.50893,0.76623 -2.674829,2.10243 -3.58398,3.54365 -1.603912,-1.5951 -3.471901,-2.84814 -5.568353,-3.57207 C 86.849972,128.3237 85.213849,127.99999 83.550797,128 Z m 146.97249,21.24451 h 6.2871 v 3.50872 h -6.2871 z" /><path
   id="path1074"
   style="fill:#ffffff;fill-opacity:1;stroke:none;stroke-width:1"
   d="m 256.3333,120 v 6.56871 h 7.3119 V 120 Z m 40.35479,0 v 32.79339 c 0,0.95058 -0.24349,1.67903 -0.73096,2.1823 -0.48744,0.50321 -1.22777,0.75508 -2.22143,0.75508 h -13.19039 c -0.95616,0 -1.69146,-0.24715 -2.1929,-0.75508 -0.49227,-0.49862 -0.73099,-1.249 -0.73099,-2.23686 v -9.78544 c 0,-0.95055 0.25798,-1.66453 0.75951,-2.1539 0.51091,-0.49854 1.24655,-0.7551 2.22145,-0.7551 h 13.13332 v -7.26704 h -13.19039 c -1.01241,0 -2.1244,0.15215 -3.31681,0.5303 -2.6583,0.84335 -4.72156,2.70366 -5.90702,4.92109 -0.68478,1.2809 -1.01195,2.86077 -1.01195,4.72465 v 9.84 c 0,0.67099 0.0653,1.40159 0.2261,2.1823 0.15792,0.76646 0.40879,1.53213 0.7573,2.29141 1.19186,2.59662 3.30049,4.42507 5.87851,5.25715 0.99251,0.32036 2.11773,0.47575 3.37387,0.47575 h 13.19039 c 0.69369,0 1.42843,-0.0556 2.19289,-0.22478 3.65197,-0.80805 6.47926,-3.17501 7.59289,-6.59708 C 303.84819,155.17418 304,154.0422 304,152.79339 V 120 Z M 16,122.9068 c 0,0 0,24.28608 0,36.42912 0,0.5219 0.102531,1.00463 0.280973,1.45558 0.389661,0.98483 1.120308,1.50165 1.940474,1.92697 0.432194,0.22413 0.936992,0.28153 1.461941,0.28153 11.117476,0 33.352429,0 33.352429,0 v -7.26923 H 23.311897 V 122.9068 Z m 51.04059,9.87055 c -1.837326,0 -3.416102,0.30829 -4.695333,1.00603 -2.388672,1.30292 -4.093538,3.36018 -4.83801,5.75908 -0.358419,1.15495 -0.53341,2.23642 -0.533412,3.24291 -3e-6,3.40148 0,6.80296 0,10.20442 0,1.82663 0.314711,3.39586 1.011945,4.67013 1.301889,2.3793 3.350129,4.06267 5.766541,4.80759 1.178334,0.36327 2.275864,0.53249 3.288269,0.53249 4.396794,0 13.190385,0 13.190385,0 v -6.93535 c 0,0 -8.755543,0 -13.133313,0 -0.899914,0 -1.663971,-0.26445 -2.27852,-0.80962 -0.604118,-0.53591 -0.899994,-1.29602 -0.899994,-2.26524 0,-3.38256 0,-6.76513 0,-10.14767 0,-0.89468 0.277525,-1.63628 0.816578,-2.23686 0.548372,-0.61098 1.311208,-0.92311 2.304864,-0.92311 4.396794,0 13.190385,0 13.190385,0 0.862419,0 1.588795,0.27371 2.192912,0.80961 0.614552,0.54517 0.928529,1.28628 0.928529,2.23686 0,0.89467 -0.266014,1.65428 -0.814385,2.26523 -0.539058,0.60061 -1.313399,0.89474 -2.307056,0.89474 H 67.04059 v 6.9048 h 13.190385 c 1.837327,0 3.402743,-0.31909 4.66899,-1.00604 2.384737,-1.29377 4.115859,-3.33276 4.864354,-5.73072 0.36563,-1.17138 0.53341,-2.26476 0.53341,-3.27126 0,-1.82662 -0.316696,-3.3852 -1.011945,-4.64176 -1.31042,-2.36835 -3.38256,-4.09625 -5.792881,-4.83596 -1.161659,-0.3565 -2.249524,-0.5303 -3.261928,-0.5303 0,0 -8.793591,0 -13.190385,0 z m 31.86416,0 c -0.506212,0 -0.98564,0.0929 -1.435613,0.27931 -1.51211,0.68247 -2.029968,1.87382 -2.249982,3.32584 V 163 h 7.311895 v -22.95561 h 9.50699 c 0.99367,0 1.73908,0.25656 2.25,0.7551 0.50154,0.48938 0.75731,1.20335 0.75731,2.1539 V 163 h 7.31189 v -20.04661 c 0,-1.04375 -0.12065,-2.01431 -0.36439,-2.909 h 6.58094 c 0.99364,0 1.71455,0.26087 2.19291,0.7551 0.47798,0.49384 0.73097,1.20335 0.73097,2.1539 V 163 h 7.31189 v -20.04661 c 0,-1.24879 -0.15356,-2.37053 -0.47854,-3.35638 -1.21032,-3.6716 -4.07288,-5.66298 -7.56432,-6.5687 -0.76149,-0.19753 -1.49923,-0.25096 -2.19291,-0.25096 h -9.89993 v 2.23467 c -1.04991,-0.78283 -2.15663,-1.35025 -3.31899,-1.70437 -1.16241,-0.35415 -2.24954,-0.5303 -3.26194,-0.5303 z m 46.17622,0 v 16.77314 c 0,1.6402 0.1831,3.122 0.61903,4.41914 1.55669,4.6321 5.38712,7.77149 10.01188,8.72266 1.02975,0.21179 1.99541,0.30771 2.89533,0.30771 h 16.53572 c 0.50621,0 0.97586,-0.095 1.40707,-0.28153 1.53193,-0.68116 2.01205,-1.92464 2.22146,-3.38255 v -26.55857 h -7.31191 v 22.95342 h -12.79527 c -0.88117,0 -1.70933,-0.13067 -2.47386,-0.4212 -1.62659,-0.61813 -2.60675,-1.8364 -3.31902,-3.18614 -0.38659,-0.73259 -0.47854,-1.62237 -0.47854,-2.57294 v -16.77314 z m 50.64767,0 c -0.67495,0 -1.40607,0.0805 -2.19291,0.25096 -3.61656,0.78312 -6.4879,3.18838 -7.59287,6.5687 -0.32252,0.98665 -0.47856,2.10759 -0.47856,3.35638 V 163 h 7.31191 v -20.04661 c 0,-0.95055 0.25797,-1.66452 0.75952,-2.1539 0.51091,-0.49853 1.25633,-0.7551 2.24999,-0.7551 h 16.4523 v -7.26704 z m 30.82367,0 c -1.01242,0 -2.1266,0.15215 -3.319,0.5303 -2.65832,0.84333 -4.72156,2.70366 -5.90703,4.92109 -0.6848,1.2809 -1.01194,2.86077 -1.01194,4.72465 v 9.84 c 0,1.88252 0.3051,3.49351 1.01194,4.78141 1.33148,2.42612 3.43581,4.15023 5.90703,4.89271 1.19811,0.35999 2.30658,0.53249 3.319,0.53249 h 13.18818 c 0.69368,0 1.42844,-0.0556 2.19292,-0.22478 3.65195,-0.80805 6.47924,-3.17503 7.59286,-6.59708 0.32671,-1.00396 0.47854,-2.13594 0.47854,-3.38475 v -9.84 c 0,-1.02511 -0.17487,-2.13893 -0.56195,-3.328 -0.85213,-2.61772 -2.69346,-4.6903 -4.92142,-5.84201 -1.30932,-0.67682 -2.90613,-1.00603 -4.78095,-1.00603 z m 29.78099,0 V 163 h 7.3119 v -30.22265 z m -29.72611,7.26704 h 13.1333 c 0.95616,0 1.6867,0.24428 2.19292,0.7289 0.50621,0.48461 0.75951,1.22818 0.75951,2.23467 v 9.78543 c 0,0.95058 -0.24351,1.67903 -0.73098,2.1823 -0.48744,0.50325 -1.22779,0.75508 -2.22145,0.75508 h -13.1333 c -0.9749,0 -1.71526,-0.25184 -2.22145,-0.75508 -0.50621,-0.50324 -0.75951,-1.23172 -0.75951,-2.1823 v -9.84 c 0,-0.95055 0.25798,-1.66453 0.75951,-2.1539 0.51089,-0.49854 1.24655,-0.7551 2.22145,-0.7551 z" /></svg>
